<?xml version="1.0" encoding="utf-8"?>
<!-- Generator: Adobe Illustrator 25.3.0, SVG Export Plug-In . SVG Version: 6.00 Build 0)  -->
<svg version="1.1"
	 id="Layer_1" sodipodi:docname="Superman S symbol.svg" xmlns:cc="http://creativecommons.org/ns#" xmlns:dc="http://purl.org/dc/elements/1.1/" xmlns:inkscape="http://www.inkscape.org/namespaces/inkscape" xmlns:rdf="http://www.w3.org/1999/02/22-rdf-syntax-ns#" xmlns:sodipodi="http://sodipodi.sourceforge.net/DTD/sodipodi-0.dtd" xmlns:svg="http://www.w3.org/2000/svg"
	 xmlns="http://www.w3.org/2000/svg" xmlns:xlink="http://www.w3.org/1999/xlink" x="0px" y="0px" viewBox="0 0 6600.9 1431.5"
	 style="enable-background:new 0 0 6600.9 1431.5;" xml:space="preserve">
<style type="text/css">
	.st0{fill-rule:evenodd;clip-rule:evenodd;fill:#ED1C24;}
	.st1{fill-rule:evenodd;clip-rule:evenodd;fill:#FFF200;}
	.st2{fill:#ED1C24;}
</style>
<sodipodi:namedview  bordercolor="#666666" borderopacity="1" fit-margin-bottom="0" fit-margin-left="0" fit-margin-right="0" fit-margin-top="0" gridtolerance="10" guidetolerance="10" id="namedview11" inkscape:current-layer="Layer_1" inkscape:cx="1603.4067" inkscape:cy="513.70139" inkscape:pagecheckerboard="true" inkscape:pageopacity="0" inkscape:pageshadow="2" inkscape:window-height="1033" inkscape:window-maximized="1" inkscape:window-width="1920" inkscape:window-x="-4" inkscape:window-y="-4" inkscape:zoom="0.36379283" objecttolerance="10" pagecolor="#ffffff" showgrid="false">
	</sodipodi:namedview>
<polygon id="polygon7" class="st0" points="1852.5,355.5 1513.8,1.9 355.5,0 0,355.5 893.5,1431.5 "/>
<path id="path9" inkscape:connector-curvature="0" class="st1" d="M155.4,361.9L392,117.5l148.6,1.8
	c-229.5,111-285.1,261.6-247.2,398.8L155.4,361.9z M678.7,991.2c183.7,50.3,297.1,58.6,460.5,8.5l-235.3,246.6L678.7,991.2z
	 M367,637.9l191.8,215.4c29.1-112.8,332.1-43.9,358.7,48.5c127,41.8,343.4-29.3,346.4-95.5C1263.3,646.5,525.8,779,367,637.9z
	 M1499.8,157l-5.1,227.8h-298.7c4-150.6-110.4-224.6-330.8-218.5c-155.2,3-304.3,63.7-306.3,163.8c0,237.6,835.5-19.2,902.3,312.4
	l242.3-280.2L1499.8,157z M1144.4,120.1l158.5,0.2l-34.7,118C1239,166.9,1189.8,140.8,1144.4,120.1L1144.4,120.1z"/>
<g>
	<path class="st2" d="M2265.2,889.9c0,188-87.6,282-262.8,282c-170,0-254.9-91.8-254.9-275.4V535H1889v363.2
		c0,101.3,39.6,151.9,118.7,151.9c77.7,0,116.6-48.9,116.6-146.7V535h141V889.9z"/>
	<path class="st2" d="M2542.4,945.3V1161h-141V535h220.9c157.7,0,236.6,66.5,236.6,199.5c0,62.9-22.6,113.7-67.9,152.6
		c-45.3,38.9-105.7,58.3-181.4,58.3H2542.4z M2542.4,643.2v195.1h55.4c75.1,0,112.6-32.9,112.6-98.7c0-64.3-37.5-96.5-112.6-96.5
		H2542.4z"/>
	<path class="st2" d="M3326,1161h-375.4V535h361v114.8h-220V789h204.7v114.4h-204.7v143.2H3326V1161z"/>
	<path class="st2" d="M3951.5,1161h-162l-97.3-161.1c-7.3-12.2-14.3-23.1-21-32.7c-6.7-9.6-13.5-17.8-20.3-24.7
		c-6.8-6.8-14-12.1-21.4-15.7c-7.4-3.6-15.5-5.5-24.2-5.5h-38V1161h-141V535h223.5c151.9,0,227.9,56.7,227.9,170.2
		c0,21.8-3.3,42-10,60.5c-6.7,18.5-16.2,35.1-28.4,50s-27,27.7-44.3,38.4c-17.3,10.8-36.6,19.2-57.8,25.3v1.7
		c9.3,2.9,18.3,7.6,27.1,14.2s17.2,14.2,25.3,22.9c8.1,8.7,15.9,18.1,23.4,28.2c7.4,10,14.2,19.9,20.3,29.5L3951.5,1161z
		 M3567.4,640.6v174.2h61.1c30.3,0,54.6-8.7,72.9-26.2c18.6-17.7,27.9-39.7,27.9-65.9c0-54.7-32.7-82.1-98.2-82.1H3567.4z"/>
	<path class="st2" d="M4706.3,1161h-137.5V906c0-64.9-23.9-97.3-71.6-97.3c-22.7,0-41.2,9.8-55.4,29.2
		c-14.3,19.5-21.4,43.8-21.4,72.9V1161h-137.9V903.4c0-63.1-23.4-94.7-70.3-94.7c-23.6,0-42.4,9.3-56.5,27.9
		c-14.1,18.6-21.2,43.9-21.2,76V1161h-137.9V714h137.9v69.8h1.7c14.3-23.9,34.3-43.3,60-58.3c25.8-15,53.9-22.5,84.5-22.5
		c63.1,0,106.4,27.8,129.6,83.4c34-55.6,84.1-83.4,150.2-83.4c97.2,0,145.8,60,145.8,179.8V1161z"/>
	<path class="st2" d="M5187.3,1161h-130.5v-64.2h-1.7c-30,50.1-74.4,75.1-133.1,75.1c-43.4,0-77.5-12.3-102.4-36.9
		c-24.9-24.6-37.3-57.4-37.3-98.4c0-86.7,51.4-136.8,154.1-150.2l121.4-16.2c0-48.9-26.5-73.3-79.4-73.3
		c-53.3,0-103.9,15.9-151.9,47.6V740.6c19.2-9.9,45.5-18.6,78.8-26.2c33.3-7.6,63.7-11.3,91-11.3c127.5,0,191.2,63.6,191.2,190.8
		V1161z M5057.7,979.4v-30.1l-81.2,10.5c-44.8,5.8-67.2,26-67.2,60.7c0,15.7,5.5,28.6,16.4,38.6c10.9,10,25.7,15.1,44.3,15.1
		c25.9,0,47-8.9,63.3-26.8C5049.5,1029.3,5057.7,1006.7,5057.7,979.4z"/>
	<path class="st2" d="M5588.1,838.4c-16.6-9-35.9-13.5-58.1-13.5c-30,0-53.4,11-70.3,33c-16.9,22-25.3,51.9-25.3,89.7V1161h-137.9
		V714h137.9v82.9h1.7c21.8-60.5,61.1-90.8,117.9-90.8c14.5,0,25.9,1.7,34,5.2V838.4z"/>
	<path class="st2" d="M6100.1,1161h-165.4l-142.7-221.8h-1.7V1161h-137.9V499.2h137.9v421.2h1.7L5925.1,714h163.7l-160.2,210
		L6100.1,1161z"/>
	<path class="st2" d="M6417,1155.7c-20.4,10.8-51.1,16.2-92.1,16.2c-97.2,0-145.8-50.5-145.8-151.5V815.7h-72.5V714h72.5v-96.5
		l137.5-39.3V714H6417v101.7h-100.4v180.7c0,46.6,18.5,69.8,55.4,69.8c14.5,0,29.5-4.2,45-12.7V1155.7z"/>
</g>
</svg>
